<svg xmlns="http://www.w3.org/2000/svg" xmlns:xlink="http://www.w3.org/1999/xlink" version="1.1" id="Layer_1" x="0px" y="0px" width="100px" height="100px" viewBox="0 0 100 100" enable-background="new 0 0 100 100" xml:space="preserve">
<polygon points="65.277,44.657 65.277,41.664 73.611,41.664 76.389,37.497 56.944,23.609 56.944,38.285 "/>
<path d="M72.759,58.219l-7.481-4.987v-5.08l-8.588-6.569l-20.578-6.603v-3.733c0-1.15-0.933-2.083-2.083-2.083  s-2.083,0.933-2.083,2.083v8.515l-15.344,7.083c-1.741,0.803-2.501,2.866-1.697,4.607c0.586,1.27,1.842,2.019,3.155,2.019  c0.487,0,0.982-0.104,1.453-0.322l3.679-1.698c-0.357,0.863-0.376,1.864,0.046,2.779c0.586,1.27,1.843,2.019,3.155,2.019  c0.487,0,0.982-0.104,1.453-0.321l12.292-5.674l25.589,23.15c0.665,0.602,1.499,0.897,2.329,0.897c0.946,0,1.891-0.385,2.575-1.144  c1.287-1.421,1.176-3.617-0.245-4.903l-10.08-9.118l0.525-0.525l8.076,5.385c0.593,0.395,1.262,0.583,1.923,0.583  c1.123,0,2.225-0.542,2.892-1.546C74.787,61.439,74.355,59.282,72.759,58.219z"/>
<circle cx="86.805" cy="52.082" r="6.25"/>
<path d="M50,100l50-0.002V68.055C76.389,72.22,50,100,50,100z"/>
<path d="M45.973,96.173c0.605-0.638,8.589-8.966,19.733-17.239C46.154,68.595,21.368,58.333,0,58.333l0.001,41.665h42.338  L45.973,96.173z"/>
<circle cx="88.194" cy="39.583" r="2.083"/>
<circle cx="88.194" cy="31.25" r="2.083"/>
<circle cx="85.417" cy="22.917" r="2.083"/>
<circle cx="81.25" cy="15.972" r="2.083"/>
<circle cx="74.305" cy="11.805" r="2.083"/>
<circle cx="65.972" cy="11.805" r="2.083"/>
<circle cx="57.639" cy="14.583" r="2.083"/>
<circle cx="50.694" cy="18.75" r="2.083"/>
<circle cx="47.917" cy="11.805" r="2.083"/>
<circle cx="45.139" cy="4.861" r="2.083"/>
<circle cx="38.195" cy="2.083" r="2.083"/>
<circle cx="31.25" cy="4.861" r="2.083"/>
</svg>